<svg version="1.1" xmlns="http://www.w3.org/2000/svg" viewBox="0 0 561.9859432314003 247.91139281930856" width="1123.9718864628005" height="495.8227856386171">
  <!-- svg-source:excalidraw -->
  
  <defs>
    <style class="style-fonts">
      @font-face {
        font-family: "Virgil";
        src: url("https://excalidraw.com/Virgil.woff2");
      }
      @font-face {
        font-family: "Cascadia";
        src: url("https://excalidraw.com/Cascadia.woff2");
      }
    </style>
    
  </defs>
  <rect x="0" y="0" width="561.9859432314003" height="247.91139281930856" fill="#ffffff"></rect><g stroke-linecap="round" transform="translate(10 32.52961175785424) rotate(0 62.062704087674035 23.167242279302997)"><path d="M11.58 0 C47.79 -0.22, 82.54 -0.45, 112.54 0 M11.58 0 C39.04 -0.59, 66.72 -0.68, 112.54 0 M112.54 0 C121.1 -0.53, 124.58 4.31, 124.13 11.58 M112.54 0 C120.22 -0.43, 124.17 3.33, 124.13 11.58 M124.13 11.58 C124.7 18.43, 124.94 26.17, 124.13 34.75 M124.13 11.58 C123.99 20.81, 123.77 29.85, 124.13 34.75 M124.13 34.75 C123.64 43.31, 120.55 46.71, 112.54 46.33 M124.13 34.75 C124.2 42.51, 119.32 46.19, 112.54 46.33 M112.54 46.33 C89.58 46.47, 67.09 45.83, 11.58 46.33 M112.54 46.33 C89.27 46.42, 66.26 45.99, 11.58 46.33 M11.58 46.33 C3.23 45.83, -0.59 42.48, 0 34.75 M11.58 46.33 C3.77 46.78, 0.1 42.33, 0 34.75 M0 34.75 C0.48 27.73, -0.64 21.37, 0 11.58 M0 34.75 C0.22 26.74, 0.32 18.92, 0 11.58 M0 11.58 C0.09 4.56, 3.91 -0.16, 11.58 0 M0 11.58 C0.76 3.01, 2.9 0.77, 11.58 0" stroke="#1e1e1e" stroke-width="2" fill="none"></path></g><g transform="translate(44.1327037824982 43.196854037157266) rotate(0 27.93000030517578 12.5)"><text x="27.93000030517578" y="0" font-family="Virgil, Segoe UI Emoji" font-size="20px" fill="#1e1e1e" text-anchor="middle" style="white-space: pre;" direction="ltr" dominant-baseline="text-before-edge">spesa</text></g><g stroke-linecap="round" transform="translate(389.177616754831 160.26825955474504) rotate(0 62.062704087674035 23.167242279302997)"><path d="M11.58 0 C34.44 -0.53, 59.57 -0.97, 112.54 0 M11.58 0 C36.43 -0.12, 61.12 -0.16, 112.54 0 M112.54 0 C120.38 -0.06, 123.94 3.89, 124.13 11.58 M112.54 0 C119.86 -0.87, 124.4 3.53, 124.13 11.58 M124.13 11.58 C124.77 20.14, 124.51 28.86, 124.13 34.75 M124.13 11.58 C123.83 16.27, 124.08 21.2, 124.13 34.75 M124.13 34.75 C123.54 41.94, 121.09 45.87, 112.54 46.33 M124.13 34.75 C124.05 41.7, 119.76 45.69, 112.54 46.33 M112.54 46.33 C71.4 45.58, 32.04 45.9, 11.58 46.33 M112.54 46.33 C84.01 46.22, 55.31 46.21, 11.58 46.33 M11.58 46.33 C3.54 45.8, -0.67 43.01, 0 34.75 M11.58 46.33 C3.64 46.23, -0.71 41.64, 0 34.75 M0 34.75 C0.89 29.02, -0.3 23, 0 11.58 M0 34.75 C-0.16 29.67, -0.29 24.18, 0 11.58 M0 11.58 C-0.1 3.2, 4.45 -0.45, 11.58 0 M0 11.58 C0.17 3.27, 4.6 -0.65, 11.58 0" stroke="#1e1e1e" stroke-width="2" fill="none"></path></g><g transform="translate(404.72032419943866 170.93550183404807) rotate(0 46.519996643066406 12.5)"><text x="46.519996643066406" y="0" font-family="Virgil, Segoe UI Emoji" font-size="20px" fill="#1e1e1e" text-anchor="middle" style="white-space: pre;" direction="ltr" dominant-baseline="text-before-edge">categoria</text></g><g stroke-linecap="round" transform="translate(427.8605350560523 34.01741630790116) rotate(0 62.06270408767398 17.5)"><path d="M8.75 0 C42.26 0.03, 76.28 -0.06, 115.38 0 M8.75 0 C39.19 0.5, 69.61 0.45, 115.38 0 M115.38 0 C121.24 0.05, 124.39 2.9, 124.13 8.75 M115.38 0 C120.62 -0.02, 124.39 3.06, 124.13 8.75 M124.13 8.75 C123.97 13.05, 123.83 16.97, 124.13 26.25 M124.13 8.75 C123.89 13.58, 123.87 18.1, 124.13 26.25 M124.13 26.25 C124.27 31.87, 120.99 35.03, 115.38 35 M124.13 26.25 C123.72 32.52, 121.67 34.79, 115.38 35 M115.38 35 C92.64 34.56, 71.06 35.37, 8.75 35 M115.38 35 C72.81 35.24, 30.3 35.18, 8.75 35 M8.75 35 C3.29 34.48, -0.36 31.83, 0 26.25 M8.75 35 C3.34 35.35, 0.23 31.68, 0 26.25 M0 26.25 C-0.1 19.85, 0.14 13.98, 0 8.75 M0 26.25 C0.11 21.4, 0.06 16.82, 0 8.75 M0 8.75 C-0.35 2.55, 3.16 0.47, 8.75 0 M0 8.75 C-0.32 2.33, 2.35 -0.13, 8.75 0" stroke="#1e1e1e" stroke-width="2" fill="none"></path></g><g transform="translate(467.16323891484444 39.01741630790116) rotate(0 22.760000228881893 12.5)"><text x="22.760000228881836" y="0" font-family="Virgil, Segoe UI Emoji" font-size="20px" fill="#1e1e1e" text-anchor="middle" style="white-space: pre;" direction="ltr" dominant-baseline="text-before-edge">tags</text></g><g stroke-linecap="round"><g transform="translate(130.29962504665593 75.03831318776798) rotate(0 35.77635606827181 42.6066037497269)"><path d="M1.18 0.91 C13.15 14.98, 59.65 69.83, 71.21 83.91 M0.34 0.34 C12.23 14.56, 58.85 71.05, 70.38 84.87" stroke="#1e1e1e" stroke-width="2" fill="none"></path></g></g><mask></mask><g stroke-linecap="round"><g transform="translate(134.1254081753483 50.808353372717136) rotate(0 32.90248295629425 0.06696412062012769)"><path d="M-0.06 0.05 C10.9 0.06, 54.89 -0.01, 65.86 0 M0.18 -0.05 C11.11 -0.01, 54.76 0.19, 65.74 0.18" stroke="#1e1e1e" stroke-width="2" fill="none"></path></g></g><mask></mask><g transform="translate(374.72465826865994 157.93028097609988) rotate(0 2.7100000381469727 12.5)"><text x="0" y="0" font-family="Virgil, Segoe UI Emoji" font-size="20px" fill="#1e1e1e" text-anchor="start" style="white-space: pre;" direction="ltr" dominant-baseline="text-before-edge">1</text></g><g transform="translate(118.39718864628014 82.26479243085333) rotate(0 6.440000057220459 12.5)"><text x="0" y="0" font-family="Virgil, Segoe UI Emoji" font-size="20px" fill="#1e1e1e" text-anchor="start" style="white-space: pre;" direction="ltr" dominant-baseline="text-before-edge">N</text></g><g transform="translate(411.28214149838595 26.57839355766629) rotate(0 6.440000057220459 12.5)"><text x="0" y="0" font-family="Virgil, Segoe UI Emoji" font-size="20px" fill="#1e1e1e" text-anchor="start" style="white-space: pre;" direction="ltr" dominant-baseline="text-before-edge">N</text></g><g transform="translate(140.9268004041346 27.42856758626465) rotate(0 6.440000057220459 12.5)"><text x="0" y="0" font-family="Virgil, Segoe UI Emoji" font-size="20px" fill="#1e1e1e" text-anchor="start" style="white-space: pre;" direction="ltr" dominant-baseline="text-before-edge">N</text></g><g transform="translate(431.86148748621565 75.95096664457316) rotate(0 56.3900032043457 12.5)"><text x="0" y="0" font-family="Virgil, Segoe UI Emoji" font-size="20px" fill="#1e1e1e" text-anchor="start" style="white-space: pre;" direction="ltr" dominant-baseline="text-before-edge">- nome (PK)</text></g><g stroke-linecap="round" transform="translate(194.9128512201247 10) rotate(0 87.78046845277186 40.285729654941434)"><path d="M110 10.25 C123.23 17.18, 134.81 19.82, 153.56 30.75 M110 10.25 C120.02 15.48, 128.16 18.19, 153.56 30.75 M153.56 30.75 C174.18 42.01, 174.66 41.89, 153.56 51.25 M153.56 30.75 C173.82 41.17, 173.63 39.55, 153.56 51.25 M153.56 51.25 C141.76 56.6, 131.22 63.33, 110 70.32 M153.56 51.25 C138.2 57.46, 122.53 65.37, 110 70.32 M110 70.32 C88.18 80.86, 89.69 81.14, 66 70.32 M110 70.32 C86.83 78.76, 89.79 79.66, 66 70.32 M66 70.32 C50.82 63.16, 35.32 59.22, 22 51.25 M66 70.32 C51.23 62.93, 37.06 57.04, 22 51.25 M22 51.25 C1.26 42.96, 1.33 42.22, 22 30.75 M22 51.25 C-0.14 39.73, 0.51 42.81, 22 30.75 M22 30.75 C30.87 26.44, 43.72 21, 66 10.25 M22 30.75 C34.56 24.73, 47.7 19.6, 66 10.25 M66 10.25 C88.78 -1.6, 89.71 1.27, 110 10.25 M66 10.25 C89.15 0.72, 86.11 0.24, 110 10.25" stroke="#1e1e1e" stroke-width="2" fill="none"></path></g><g transform="translate(244.12308514133485 37.6428648274707) rotate(0 38.68000030517578 12.5)"><text x="38.68000030517578" y="0" font-family="Virgil, Segoe UI Emoji" font-size="20px" fill="#1e1e1e" text-anchor="middle" style="white-space: pre;" direction="ltr" dominant-baseline="text-before-edge">contiene</text></g><g stroke-linecap="round"><g transform="translate(363.2473088825833 50.80835337271725) rotate(0 32.33085369828615 0.1546346574162385)"><path d="M-0.07 0.01 C10.73 0.06, 53.96 0.21, 64.74 0.3 M0.16 -0.11 C10.96 -0.05, 53.97 0.36, 64.68 0.42" stroke="#1e1e1e" stroke-width="2" fill="none"></path></g></g><mask></mask><g stroke-linecap="round" transform="translate(151.34143225446337 142.72468516480757) rotate(0 87.78046845277186 40.285729654941406)"><path d="M110 10.25 C124.19 19.22, 138.74 25.51, 153.56 30.75 M110 10.25 C121.51 16.03, 133.37 20.84, 153.56 30.75 M153.56 30.75 C174.67 40.69, 174.28 39.18, 153.56 51.25 M153.56 30.75 C173.88 41.81, 175.1 42.96, 153.56 51.25 M153.56 51.25 C139.57 58.17, 122.28 66.21, 110 70.32 M153.56 51.25 C144.83 54.65, 136.5 59.26, 110 70.32 M110 70.32 C86.74 79.99, 87.13 82.41, 66 70.32 M110 70.32 C86.98 79.97, 86.85 81.95, 66 70.32 M66 70.32 C51.77 62.5, 34.72 55.55, 22 51.25 M66 70.32 C52.1 64.93, 39.72 59.62, 22 51.25 M22 51.25 C-0.18 42.37, -0.21 41.01, 22 30.75 M22 51.25 C-2.28 39.12, 2.2 43.11, 22 30.75 M22 30.75 C34.81 22.57, 51.21 18.67, 66 10.25 M22 30.75 C36.03 24.21, 49.3 18.22, 66 10.25 M66 10.25 C87.61 -0.61, 86.91 1.81, 110 10.25 M66 10.25 C89.12 1.3, 88.29 1.62, 110 10.25" stroke="#1e1e1e" stroke-width="2" fill="none"></path></g><g transform="translate(200.55166617567352 170.36754999227827) rotate(0 38.68000030517578 12.5)"><text x="38.68000030517578" y="0" font-family="Virgil, Segoe UI Emoji" font-size="20px" fill="#1e1e1e" text-anchor="middle" style="white-space: pre;" direction="ltr" dominant-baseline="text-before-edge">contiene</text></g><g stroke-linecap="round"><g transform="translate(319.8884334240712 183.01041481974897) rotate(0 34.64477162764621 -0.08915994042470743)"><path d="M-0.1 0 C11.46 -0.01, 57.83 0.04, 69.39 0.04 M0.12 -0.13 C11.66 -0.19, 57.82 -0.24, 69.32 -0.2" stroke="#1e1e1e" stroke-width="2" fill="none"></path></g></g><mask></mask><g transform="translate(14.675957157291009 83.36304096947862) rotate(0 39.77915954589844 32.71312808516839)"><text x="0" y="0" font-family="Virgil, Segoe UI Emoji" font-size="13.08525123406736px" fill="#1e1e1e" text-anchor="start" style="white-space: pre;" direction="ltr" dominant-baseline="text-before-edge">- id (PK)</text><text x="0" y="16.3565640425842" font-family="Virgil, Segoe UI Emoji" font-size="13.08525123406736px" fill="#1e1e1e" text-anchor="start" style="white-space: pre;" direction="ltr" dominant-baseline="text-before-edge">- descrizione</text><text x="0" y="32.7131280851684" font-family="Virgil, Segoe UI Emoji" font-size="13.08525123406736px" fill="#1e1e1e" text-anchor="start" style="white-space: pre;" direction="ltr" dominant-baseline="text-before-edge">- data</text><text x="0" y="49.0696921277526" font-family="Virgil, Segoe UI Emoji" font-size="13.08525123406736px" fill="#1e1e1e" text-anchor="start" style="white-space: pre;" direction="ltr" dominant-baseline="text-before-edge">- importo</text></g><g transform="translate(395.41841600559894 212.91139281930856) rotate(0 56.3900032043457 12.5)"><text x="0" y="0" font-family="Virgil, Segoe UI Emoji" font-size="20px" fill="#1e1e1e" text-anchor="start" style="white-space: pre;" direction="ltr" dominant-baseline="text-before-edge">- nome (PK)</text></g></svg>